# xmcd
#
# Track frame offsets:
#	150
#	7621
#	29879
#	41112
#	56406
#	65952
#	79862
#	86293
#	98876
#	113877
#	126666
#	134679
#	147958
#	176675
#	195936
#	207975
#	222663
#
# Disc length: 3286 seconds
#
# Revision: 1
# Processed by: cddbd v1.4PL0 Copyright (c) Steve Scherf et al.
# Submitted via: audiograbber 1.82.02
#
DISCID=040cd411
DTITLE=The SwampNobs - The Toilets Are Massive!
DYEAR=2003
DGENRE=Blues
TTITLE0=Bayou Dawn
TTITLE1=Fat Man's Lament
TTITLE2=Double Bass Blues
TTITLE3=Lonley Mile
TTITLE4=Ground hog
TTITLE5=Healer Not The Dealer Blues
TTITLE6=Little Honey Bee
TTITLE7=Chewing, Chewing Gum
TTITLE8=Pick A Bale Of Cotton
TTITLE9=Yes, Indeed I Do
TTITLE10=Creole Belle
TTITLE11=Millie's
TTITLE12=Blue Flowers
TTITLE13=Humphrey Bogart Evening
TTITLE14=Good Time Tonight
TTITLE15=Why, Oh Why?
TTITLE16=Get Your Shoes On
EXTD=
EXTT0=
EXTT1=
EXTT2=
EXTT3=
EXTT4=
EXTT5=
EXTT6=
EXTT7=
EXTT8=
EXTT9=
EXTT10=
EXTT11=
EXTT12=
EXTT13=
EXTT14=
EXTT15=
EXTT16=
PLAYORDER=
